<?xml version="1.0" encoding="utf-8"?>
<svg version="1.1" viewBox="0 0 100 100" height="100pt" width="100pt" xmlns:xlink="http://www.w3.org/1999/xlink" xmlns="http://www.w3.org/2000/svg">
<g id="surface1">
<path d="M 77.082031 93.75 L 22.917969 93.75 C 19.464844 93.75 16.667969 90.953125 16.667969 87.5 L 16.667969 12.5 C 16.667969 9.046875 19.464844 6.25 22.917969 6.25 L 62.5 6.25 L 83.332031 27.082031 L 83.332031 87.5 C 83.332031 90.953125 80.535156 93.75 77.082031 93.75 Z M 77.082031 93.75" style="stroke:none;fill-rule:nonzero;fill:rgb(26.27451%,62.745098%,27.843137%);fill-opacity:1;"></path>
<path d="M 83.332031 27.082031 L 62.5 27.082031 L 62.5 6.25 Z M 83.332031 27.082031" style="stroke:none;fill-rule:nonzero;fill:rgb(78.431373%,90.196078%,78.823529%);fill-opacity:1;"></path>
<path d="M 62.5 27.082031 L 83.332031 47.917969 L 83.332031 27.082031 Z M 62.5 27.082031" style="stroke:none;fill-rule:nonzero;fill:rgb(18.039216%,49.019608%,19.607843%);fill-opacity:1;"></path>
<path d="M 64.582031 47.917969 L 31.25 47.917969 L 31.25 77.082031 L 68.75 77.082031 L 68.75 47.917969 Z M 35.417969 52.082031 L 43.75 52.082031 L 43.75 56.25 L 35.417969 56.25 Z M 35.417969 60.417969 L 43.75 60.417969 L 43.75 64.582031 L 35.417969 64.582031 Z M 35.417969 68.75 L 43.75 68.75 L 43.75 72.917969 L 35.417969 72.917969 Z M 64.582031 72.917969 L 47.917969 72.917969 L 47.917969 68.75 L 64.582031 68.75 Z M 64.582031 64.582031 L 47.917969 64.582031 L 47.917969 60.417969 L 64.582031 60.417969 Z M 64.582031 56.25 L 47.917969 56.25 L 47.917969 52.082031 L 64.582031 52.082031 Z M 64.582031 56.25" style="stroke:none;fill-rule:nonzero;fill:rgb(90.980392%,96.078431%,91.372549%);fill-opacity:1;"></path>
</g>
</svg>
